PathFileType	4	(X/Y/Z)	C:/Users/opensim2020/Desktop/walking_exp_matlab/subject03_walking14_straight_02.trc																																																																																																																																											
DataRate	CameraRate	NumFrames	NumMarkers	Units	OrigDataRate	OrigDataStartFrame	OrigNumFrames																																																																																																																																							
100	100	4	47	mm	100	1065	168																																																																																																																																							
Frame#	Time	LFHD			RFHD			LBHD			RBHD			C7			T10			CLAV			STRN			RBAK			LSHO			LUPA			LELB			LFRM			LWRA			LWRB			LFIN			RSHO			RUPA			RELB			RFRM			RWRA			RWRB			RFIN			LASI			RASI			LPSI			RPSI			LTHI			LKNE			LTIB			LANK			LHEE			LTOE			RTHI			RKNE			RTIB			RANK			RHEE			RTOE			*39			*40			*41			*42			*43			*44			*45			*46		
		X1	Y1	Z1	X2	Y2	Z2	X3	Y3	Z3	X4	Y4	Z4	X5	Y5	Z5	X6	Y6	Z6	X7	Y7	Z7	X8	Y8	Z8	X9	Y9	Z9	X10	Y10	Z10	X11	Y11	Z11	X12	Y12	Z12	X13	Y13	Z13	X14	Y14	Z14	X15	Y15	Z15	X16	Y16	Z16	X17	Y17	Z17	X18	Y18	Z18	X19	Y19	Z19	X20	Y20	Z20	X21	Y21	Z21	X22	Y22	Z22	X23	Y23	Z23	X24	Y24	Z24	X25	Y25	Z25	X26	Y26	Z26	X27	Y27	Z27	X28	Y28	Z28	X29	Y29	Z29	X30	Y30	Z30	X31	Y31	Z31	X32	Y32	Z32	X33	Y33	Z33	X34	Y34	Z34	X35	Y35	Z35	X36	Y36	Z36	X37	Y37	Z37	X38	Y38	Z38	X39	Y39	Z39	X40	Y40	Z40	X41	Y41	Z41	X42	Y42	Z42	X43	Y43	Z43	X44	Y44	Z44	X45	Y45	Z45	X46	Y46	Z46	X47	Y47	Z47
																																																																																																																																														
22	0.21	-891.73376	1621.82397	915.49841	-903.46661	1627.2793	1047.73303	-1014.36597	1565.3175	910.21338	-1021.21484	1570.49377	1040.72961	-1032.20398	1404.91736	974.72229	-1049.92822	1093.85229	978.46539	-904.59186	1337.14941	974.95319	-850.44818	1174.37634	967.84528	-1073.3595	1227.28406	1068.56848	-958.24451	1373.61108	819.18475	-945.82001	1178.39294	749.04962	-914.00439	1059.01855	743.68134	-837.17786	958.15479	761.55786	-768.4408	870.7157	811.66797	-785.90778	856.29175	760.2525	-731.07239	796.48816	784.74567	-953.81769	1357.10291	1134.58313	-960.3902	1135.25061	1210.35547	-951.93256	1022.9176	1226.33105	-949.17505	885.87366	1233.54163	-929.96875	785.86731	1203.54224	-961.82898	786.4212	1247.66138	-950.89191	711.19226	1238.27234	-898.24005	923.15649	862.80182	-879.36023	942.51868	1097.72778	-1055.36865	947.578	921.50195	-1042.95544	971.95288	1067.97559	-910.08405	617.30695	828.76392	-866.47748	443.62543	852.55933	-1023.04919	328.67032	865.30048	-1185.84265	204.7675	914.22015	-1235.34314	217.10538	954.15735	-1128.63403	66.83221	942.25079	-910.09869	647.24408	1152.34888	-883.46613	471.67697	1109.58167	-930.987	282.35269	1121.03589	-975.75781	69.68523	1081.03162	-1025.7854	37.4073	1035.96448	-837.29718	32.36121	1057.25867	-983.6217	1674.71143	958.4212	NaN	NaN	NaN	NaN	NaN	NaN	NaN	NaN	NaN	NaN	NaN	NaN	NaN	NaN	NaN	NaN	NaN	NaN	NaN	NaN	NaN
23	0.22	-878.83301	1622.69836	915.40417	-890.41412	1628.04797	1047.65747	-1001.64569	1566.59973	910.15161	-1008.1925	1571.66711	1040.65564	-1019.91284	1405.82043	975.19489	-1037.53625	1094.85059	979.7641	-892.36554	1338.20044	974.47461	-838.26624	1175.46875	967.38104	-1060.37976	1228.48694	1070.02673	-947.74786	1374.42456	819.17822	-937.0896	1178.62329	749.43781	-905.9259	1059.01038	743.71643	-830.96448	956.14569	759.84229	-763.43842	866.5918	808.11584	-782.24097	853.04376	756.90198	-728.74756	791.43481	779.92456	-940.41345	1358.70679	1134.51831	-942.02277	1136.90833	1211.06689	-930.78577	1024.91772	1227.28931	-925.02026	888.02185	1235.23206	-904.22198	788.42548	1205.40466	-935.17621	788.47168	1250.08313	-922.18958	713.60327	1241.26904	-885.5567	925.388	863.93524	-867.41705	943.06299	1098.48462	-1043.04309	949.53406	921.7392	-1030.54199	972.77484	1068.5592	-890.82977	620.48877	828.8205	-842.97308	447.99026	852.9209	-996.03094	328.37866	865.78632	-1154.60986	198.98039	914.47876	-1205.43811	208.39813	954.659	-1089.42676	65.44778	940.86444	-901.73853	646.88788	1151.83704	-878.79382	470.87646	1109.26001	-928.4209	282.17606	1120.81543	-975.56702	69.89046	1080.95142	-1025.55493	37.78753	1035.69397	-837.28125	32.33553	1057.12561	-970.31775	1675.72485	958.20978	NaN	NaN	NaN	NaN	NaN	NaN	NaN	NaN	NaN	NaN	NaN	NaN	NaN	NaN	NaN	NaN	NaN	NaN	NaN	NaN	NaN
24	0.23	-865.92944	1623.38562	915.24023	-877.33636	1628.68726	1047.50781	-988.91461	1567.69604	910.09741	-995.39618	1572.69934	1040.56396	-1007.71783	1406.62012	975.62518	-1025.29614	1095.78735	981.06219	-880.18463	1339.10083	974.07678	-826.12494	1176.33521	967.02911	-1047.41321	1229.68152	1071.30237	-937.01337	1374.99695	819.1637	-928.13824	1178.75964	749.82916	-898.07739	1058.91418	743.58496	-825.00067	954.04639	757.92719	-758.8988	862.30621	804.4906	-779.04712	849.72461	753.57141	-726.84491	786.39978	774.89966	-927.00989	1360.11218	1134.39014	-923.78528	1138.64648	1211.72473	-909.68134	1027.05322	1228.21167	-900.7851	890.45483	1236.83386	-878.32257	791.18433	1207.19885	-908.32526	790.82263	1252.37952	-893.34528	716.43683	1244.02783	-873.18756	927.50238	865.04626	-855.55182	943.21161	1099.22058	-1030.79932	951.30511	922.01892	-1018.1189	973.38666	1069.17908	-871.89502	623.68652	828.75726	-819.8913	452.40842	853.32843	-968.90833	327.52179	866.20819	-1122.60449	192.05176	914.58325	-1174.41528	198.21739	954.94598	-1049.41187	63.1259	939.81464	-894.24243	646.67572	1150.47278	-874.151	470.0686	1108.9552	-925.79803	281.90659	1120.36572	-975.07043	69.97795	1080.73425	-1025.76978	38.31772	1035.7561	-837.21857	32.3189	1057.00696	-957.17828	1677.05579	957.80249	NaN	NaN	NaN	NaN	NaN	NaN	NaN	NaN	NaN	NaN	NaN	NaN	NaN	NaN	NaN	NaN	NaN	NaN	NaN	NaN	NaN
25	0.24	-853.0556	1623.8866	915.00702	-864.31799	1629.19824	1047.2865	-976.22577	1568.56812	910.01459	-982.51935	1573.53442	1040.45813	-995.40302	1407.26233	975.94995	-1012.92883	1096.49646	982.17419	-867.98602	1339.77393	973.69934	-814.01892	1176.98035	966.9043	-1034.24353	1230.71301	1072.4176	-926.09558	1375.35461	819.22003	-919.14099	1178.67151	750.06915	-890.46014	1058.5647	743.28864	-819.37695	951.7207	755.94586	-754.75177	857.91895	800.64642	-776.40839	846.23804	750.12915	-725.42432	781.42664	769.69897	-913.63055	1361.43591	1134.28528	-905.65436	1140.43286	1212.37671	-888.70148	1029.27771	1229.05054	-876.45087	892.99194	1238.27429	-852.255	794.02399	1208.77759	-881.37402	793.41077	1254.46509	-864.26318	719.5481	1246.5697	-860.90393	929.34796	865.87384	-843.75995	942.90375	1099.89978	-1018.63062	952.83594	922.33124	-1005.77716	973.81055	1069.74658	-853.50006	626.97406	828.56958	-797.4483	456.90686	853.75787	-941.88287	326.20789	866.48138	-1089.78589	184.01254	914.55762	-1142.31873	186.73785	955.00342	-1008.31573	60.9924	938.06476	-886.25299	646.80133	1149.73511	-869.57117	469.23395	1108.69385	-923.18481	281.77649	1120.37268	-974.88898	70.12365	1080.32983	-1025.54651	38.69571	1035.78894	-837.14233	32.29442	1056.9115	-944.11108	1677.56287	957.99243	NaN	NaN	NaN	NaN	NaN	NaN	NaN	NaN	NaN	NaN	NaN	NaN	NaN	NaN	NaN	NaN	NaN	NaN	NaN	NaN	NaN
